<svg width="44" height="44" viewBox="0 0 44 44" fill="none" xmlns="http://www.w3.org/2000/svg">
<g clip-path="url(#clip0_5_61)">
<path d="M19.187 25.1809L18.79 30.7649C19.358 30.7649 19.604 30.5209 19.899 30.2279L22.562 27.6829L28.08 31.7239C29.092 32.2879 29.805 31.9909 30.078 30.7929L33.7 13.8209L33.701 13.8199C34.022 12.3239 33.16 11.7389 32.174 12.1059L10.884 20.2569C9.43095 20.8209 9.45295 21.6309 10.637 21.9979L16.08 23.6909L28.723 15.7799C29.318 15.3859 29.859 15.6039 29.414 15.9979L19.187 25.1809Z" fill="#FFEE05"/>
</g>
<rect x="1" y="1" width="42" height="42" rx="21" stroke="#FFEE05" stroke-width="2"/>
<defs>
<clipPath id="clip0_5_61">
<rect width="24" height="24" fill="white" transform="translate(9.77002 10)"/>
</clipPath>
</defs>
</svg>
